<?xml version="1.0" encoding="UTF-8"?>
<svg width="1000" height="1000" viewBox="0 0 1000 1000" xmlns="http://www.w3.org/2000/svg">
  <g transform="translate(137.53,900.00) scale(0.120556,-0.120556)"
     fill="#ffffff" stroke="none">
    <path d="M1500 6630 c-420 -37 -833 -244 -1104 -555 -472 -543 -521 -1304
-124 -1902 94 -141 293 -343 428 -432 192 -128 402 -216 625 -262 105 -22 135
-23 625 -27 504 -3 517 -3 572 18 153 57 243 225 204 379 -25 98 -83 173 -171
219 l-50 27 -495 6 c-522 6 -548 8 -690 57 -298 104 -529 351 -612 657 -30
110 -34 289 -10 405 73 354 337 630 697 731 76 21 103 22 585 28 l505 6 55 26
c79 37 125 81 162 156 61 125 37 274 -62 373 -23 23 -67 54 -99 69 l-56 26
-445 1 c-245 1 -488 -2 -540 -6z"/>
    <path d="M4349 6405 c-350 -55 -656 -216 -903 -476 -212 -223 -353 -495 -427
-825 -21 -94 -23 -125 -26 -641 l-4 -543 27 -60 c90 -200 344 -257 504 -113
28 25 63 69 78 97 l27 51 6 500 c7 521 9 546 55 690 84 260 293 485 544 588
121 49 185 61 335 61 114 0 155 -4 223 -22 168 -45 306 -128 429 -255 125
-130 203 -268 251 -446 26 -96 26 -98 31 -601 6 -490 7 -506 28 -552 28 -61
94 -132 147 -157 97 -47 212 -46 299 2 l37 21 0 858 0 858 -45 90 c-210 417
-581 726 -1012 840 -183 49 -426 62 -604 35z"/>
    <path d="M651 3180 c-100 -21 -189 -89 -233 -178 -19 -39 -23 -63 -23 -142 0
-80 4 -103 24 -144 33 -66 91 -122 160 -155 l56 -26 505 -6 c577 -6 574 -6
765 -99 259 -125 427 -327 512 -615 28 -95 26 -353 -5 -460 -104 -364 -412
-632 -792 -690 -72 -11 -201 -15 -532 -15 -415 0 -440 -1 -492 -20 -69 -26
-134 -83 -171 -151 -28 -50 -30 -62 -30 -154 0 -92 2 -104 30 -154 38 -68 102
-125 173 -151 55 -21 68 -21 572 -18 489 4 521 5 624 27 522 108 945 429 1166
885 285 588 174 1281 -282 1761 -234 247 -560 422 -909 486 -104 19 -157 21
-594 24 -266 2 -499 0 -524 -5z"/>
    <path d="M4856 3179 c-717 -65 -1294 -569 -1458 -1271 -21 -90 -22 -115 -25
-873 -3 -563 -1 -791 7 -821 20 -70 77 -135 154 -174 58 -29 82 -36 146 -39
148 -6 253 49 319 169 l36 65 6 750 c5 662 7 758 22 814 95 355 344 603 707
704 69 19 109 21 535 26 l460 6 56 26 c256 120 256 478 0 598 l-56 26 -405 1
c-223 1 -450 -2 -504 -7z"/>
    <path d="M592 2393 c-64 -22 -144 -101 -178 -175 l-29 -63 -3 -505 c-2 -318 1
-534 7 -583 18 -129 77 -213 190 -269 37 -18 62 -23 131 -22 73 0 93 4 138 27
67 35 122 90 153 153 l24 49 3 571 c3 557 2 573 -18 627 -29 76 -91 143 -165
178 -50 24 -72 29 -135 28 -41 0 -94 -7 -118 -16z"/>
    <path d="M1 1127 l-1 -848 21 15 c34 24 85 102 100 153 11 38 14 148 14 528
-1 405 -3 497 -18 591 -19 122 -64 292 -96 364 l-20 45 0 -848z"/>
    <path d="M4447 1769 c-57 -13 -114 -46 -157 -89 -161 -161 -111 -430 99 -529
l56 -26 660 0 660 0 56 26 c256 120 256 478 0 598 l-56 26 -640 2 c-354 1
-657 -3 -678 -8z"/>
  </g>
</svg>
